<?xml version="1.0" encoding="utf-8"?>
<!DOCTYPE svg PUBLIC "-//W3C//DTD SVG 1.1//EN" "http://www.w3.org/Graphics/SVG/1.1/DTD/svg11.dtd">
<svg xmlns="http://www.w3.org/2000/svg" xmlns:xlink="http://www.w3.org/1999/xlink" width="192" height="192" viewBox="0 0 192 192" enable-background="new 0 0 192 192" preserveAspectRatio="xMidYMid meet" aria-labelledby="title-favicon" aria-describedby="desc-favicon" role="img">
<svg version="1.1" xmlns="http://www.w3.org/2000/svg"  viewBox="0 0 192 192" >
  <g transform="translate(-16, 206) scale(0.116, -0.116)" fill="#000000" stroke="none">
    <title id="title-favicon">Favicon</title>
    <desc id="desc-favicon">Alex&apos;s Favicon</desc>
    <path d="M517 1673 c-13 -23 -367 -931 -367 -941 0 -8 18 -12 51 -12 57 0 43 -22 123 188 l48 122 192 0 192 0 60 -152 59 -153 57 -3 58 -3 2 -237 3 -237 185 1 c107 0 210 6 245 13 180 38 307 159 345 327 6 27 11 94 11 149 0 249 -117 401 -346 450 -47 10 -131 15 -257 15 l-188 0 -2 -232 -3 -233 -185 472 -185 473 -47 0 c-26 0 -49 -3 -51 -7z m63 -151 c0 -9 32 -100 70 -202 38 -101 68 -186 66 -187 -2 -2 -71 -2 -154 -1 l-150 3 59 155 c33 85 66 179 75 208 14 49 34 62 34 24z m845 -506 c113 -48 169 -186 145 -356 -12 -86 -36 -135 -88 -182 -52 -47 -99 -61 -202 -62 l-85 -1 -3 300 c-1 165 0 306 3 314 8 19 176 10 230 -13z"/>
  </g>
</svg>
