<?xml version="1.0" standalone="no"?>
<!DOCTYPE svg PUBLIC "-//W3C//DTD SVG 20010904//EN"
 "http://www.w3.org/TR/2001/REC-SVG-20010904/DTD/svg10.dtd">
<svg version="1.0" xmlns="http://www.w3.org/2000/svg"
 width="558.000000pt" height="558.000000pt" viewBox="0 0 558.000000 558.000000"
 preserveAspectRatio="xMidYMid meet">
<metadata>
Created by potrace 1.11, written by Peter Selinger 2001-2013
</metadata>
<g transform="translate(0.000000,558.000000) scale(0.100000,-0.100000)"
fill="#000000" stroke="none">
<path d="M1496 4868 c-7 -18 -145 -368 -306 -778 -161 -410 -403 -1023 -537
-1363 -133 -339 -243 -619 -243 -622 0 -3 75 -4 167 -3 l166 3 170 443 170
442 556 0 557 0 32 -87 c18 -49 95 -248 171 -443 l138 -355 172 -3 171 -2 0
-696 0 -695 548 4 c613 5 651 8 884 83 214 69 357 153 506 298 245 238 357
530 369 963 9 322 -31 540 -140 758 -158 317 -447 536 -826 626 -180 43 -270
49 -818 49 l-523 0 -2 -687 -3 -687 -127 324 c-70 179 -256 654 -413 1055
-157 402 -345 882 -418 1068 l-132 337 -138 0 -138 0 -13 -32z m411 -1093 c97
-258 178 -476 180 -482 4 -10 -88 -13 -441 -13 -245 0 -446 2 -446 4 0 2 23
64 51 137 268 706 335 894 380 1069 l11 44 45 -144 c24 -80 124 -356 220 -615z
m2013 -775 c366 -44 575 -255 637 -645 24 -154 14 -446 -21 -580 -75 -289
-244 -466 -512 -535 -84 -22 -273 -39 -440 -40 l-101 0 -7 61 c-3 34 -6 442
-6 905 l0 844 183 0 c100 0 221 -5 267 -10z"/>
</g>
</svg>
