<?xml version="1.0" encoding="UTF-8" standalone="no"?>
<!-- Created with Inkscape (http://www.inkscape.org/) -->

<svg
   width="512"
   height="512"
   viewBox="0 0 135.46666 135.46667"
   version="1.1"
   id="svg1"
   inkscape:version="1.4.2 (ebf0e94, 2025-05-08)"
   sodipodi:docname="favicon.svg"
   xmlns:inkscape="http://www.inkscape.org/namespaces/inkscape"
   xmlns:sodipodi="http://sodipodi.sourceforge.net/DTD/sodipodi-0.dtd"
   xmlns="http://www.w3.org/2000/svg"
   xmlns:svg="http://www.w3.org/2000/svg">
  <sodipodi:namedview
     id="namedview1"
     pagecolor="#ffffff"
     bordercolor="#666666"
     borderopacity="1.0"
     inkscape:showpageshadow="2"
     inkscape:pageopacity="0.0"
     inkscape:pagecheckerboard="0"
     inkscape:deskcolor="#d1d1d1"
     inkscape:document-units="px"
     inkscape:zoom="2.0792508"
     inkscape:cx="282.07275"
     inkscape:cy="264.27788"
     inkscape:window-width="2560"
     inkscape:window-height="1369"
     inkscape:window-x="1912"
     inkscape:window-y="486"
     inkscape:window-maximized="1"
     inkscape:current-layer="layer1" />
  <defs
     id="defs1">
    <rect
       x="117.8309"
       y="164.48232"
       width="298.18432"
       height="221.71447"
       id="rect2" />
  </defs>
  <g
     inkscape:label="Layer 1"
     inkscape:groupmode="layer"
     id="layer1">
    <path
       id="rect1"
       style="fill:#2e2e2e;stroke-width:0.264999"
       d="M 0,0 H 135.46666 V 135.46666 H 0 Z" />
    <path
       d="M 37.220221,41.804105 H 34.164282 L 12.772711,100.14475 H 5.2717709 L 28.978447,35.321811 h 13.335005 l 23.614071,64.822939 h -7.50094 z m -20.372925,34.81918 h 37.782515 v 6.482294 H 16.847296 Z M 95.931367,35.321811 q 10.742083,0 18.335633,3.981981 7.68615,3.889376 11.76073,11.205108 4.16719,7.315732 4.16719,17.40959 0,10.001254 -4.16719,17.224382 -4.07458,7.223128 -11.76073,11.112504 -7.59355,3.889374 -18.335633,3.889374 H 74.539797 V 35.321811 Z m 0,58.340647 q 13.242403,0 20.002503,-6.760106 6.76011,-6.760107 6.76011,-18.983862 0,-12.316359 -6.76011,-19.16907 -6.7601,-6.945315 -20.002503,-6.945315 H 81.948133 v 51.858353 z"
       id="text3"
       style="font-size:92.6042px;line-height:1.25;font-family:'Albert Sans';-inkscape-font-specification:'Albert Sans';fill:#ffffff;stroke-width:0.264583"
       aria-label="AD" />
  </g>
</svg>
