<svg xmlns="http://www.w3.org/2000/svg">
  <defs>
    <g id="icon-twitter">
      <title id="title-twitter">Twitter</title>
      <desc id="desc-twitter">Go to Alex&apos;s Twitter profile</desc>
      <path d="M412 50H100c-27.614 0-50 22.386-50 50v312c0 27.614 22.386 50 50 50h312c27.614 0 50-22.386 50-50V100c0-27.614-22.386-50-50-50zm-40.058 157.125c3.553 79.06-55.408 167.203-159.768 167.203-31.743 0-61.29-9.305-86.164-25.253 29.82 3.515 59.586-4.758 83.218-23.278-24.596-.453-45.356-16.703-52.508-39.035 8.808 1.684 17.473 1.19 25.383-.962-27.03-5.433-45.692-29.784-45.083-55.826 7.577 4.21 16.245 6.74 25.46 7.032-25.034-16.73-32.12-49.786-17.396-75.045 27.723 34.007 69.143 56.386 115.857 58.73-8.198-35.16 18.475-69.02 54.756-69.02 16.168 0 30.776 6.826 41.03 17.75 12.803-2.52 24.832-7.197 35.693-13.638-4.198 13.126-13.11 24.14-24.716 31.098 11.37-1.357 22.204-4.38 32.284-8.85-7.534 11.27-17.062 21.17-28.046 29.095z"/>
    </g>
    <g id="icon-github">
      <title id="title-github">GitHub</title>
      <desc id="desc-github">Go to Alex&apos;s GitHub profile</desc>
      <path d="M163.98 317.334c0 .984-1.126 1.78-2.513 1.78s-2.51-.796-2.51-1.78c0-.983 1.123-1.78 2.51-1.78s2.512.797 2.512 1.78zm-7.58-7.037c-1.247 0-2.26.72-2.26 1.604s1.013 1.604 2.26 1.604c1.248 0 2.26-.718 2.26-1.603s-1.012-1.603-2.26-1.603zm10.935 10.557c-1.54 0-2.79.888-2.79 1.98 0 1.094 1.25 1.98 2.79 1.98s2.79-.886 2.79-1.98c0-1.093-1.25-1.98-2.79-1.98zM151.8 305.797c-1.066 0-1.932.613-1.932 1.37 0 .758.865 1.37 1.933 1.37 1.067 0 1.934-.612 1.934-1.37 0-.757-.867-1.37-1.933-1.37zm-4.733-3.733c-.91 0-1.648.524-1.648 1.17 0 .645.737 1.168 1.647 1.168s1.647-.523 1.647-1.168c0-.645-.737-1.17-1.647-1.17zm-4.666-2.95c-.818 0-1.482.472-1.482 1.054 0 .58.664 1.05 1.483 1.05.82 0 1.483-.47 1.483-1.05 0-.582-.663-1.053-1.482-1.053zm32.87 26.718c-1.714 0-3.102.986-3.102 2.2s1.388 2.2 3.1 2.2c1.712 0 3.1-.984 3.1-2.2s-1.39-2.2-3.1-2.2zm30.43 3.434c-1.71 0-3.1.986-3.1 2.2s1.39 2.2 3.1 2.2c1.713 0 3.1-.984 3.1-2.2s-1.387-2.2-3.1-2.2zM462 100v312c0 27.614-22.386 50-50 50H100c-27.614 0-50-22.386-50-50V100c0-27.614 22.386-50 50-50h312c27.614 0 50 22.386 50 50zm-41.2 150.66c-18.315-1.777-36.533-1.936-54.23-.584 2.845-9.078 4.344-19.332 4.235-30.992-.233-24.77-8.493-44.064-21.474-60.076 2.493-15.082.615-30.162-4.09-45.25-18.548 1.52-35.24 7.595-50.106 18.15-27.78-5.636-55.557-5.996-83.337 0-17.34-11.703-34.364-17.442-51.128-18.15-4.97 16.613-5.735 32.988-1.534 49.087-14.624 15.518-20.214 34.355-19.94 55.215.157 11.94 1.997 22.567 5.392 31.96-17.438-1.278-35.36-1.107-53.387.64l.296 3.055c18.357-1.782 36.607-1.93 54.336-.542.65 1.58 1.306 3.15 2.053 4.653-19.208-.507-36.494 1.162-52.684 5.143l.73 2.978c16.433-4.038 34.034-5.664 53.687-5.003 12.997 23.09 38.017 36.66 74.45 40.964-8.464 6.874-13.015 14.984-14.187 24.16h-19.297c-25.915 0-32.98-33.043-59.822-29.784 26.04 12.914 20.84 54.193 62.51 54.193h17.507v37.836c.186 6.114-2.476 10.203-6.775 13.038 14.924 1.506 26.14-5.944 26.14-15.084v-50.014c0-4.456 4.665-4.8 4.665-4.8v58.394c.197 5.81-2.627 9.113-5.625 12.27 13.147.524 25.514-2.102 26.074-13.29V332.94c0-2.81 4.604-2.88 4.604 0v53.265c.136 9.44 8.29 17.094 25.562 15.914-4.62-3.72-6.04-7.478-6.04-12.92v-57.744s4.762-.244 4.762 4.8v48.705c0 10.84 13.013 15.313 27.863 14.893-4.865-3.646-8.158-7.992-8.18-13.805v-58.572c-.502-8.61-4.002-16.726-10.865-24.287 33.305-5.114 57.31-18.41 69.264-42.237 19.717-.678 37.37.945 53.845 4.996l.732-2.98c-16.314-4.01-33.744-5.676-53.133-5.13.67-1.514 1.335-3.033 1.91-4.63 17.91-1.438 36.365-1.297 54.927.506l.294-3.056zm-235.7 78.072c-1.71 0-3.1.986-3.1 2.2 0 1.215 1.39 2.2 3.1 2.2 1.714 0 3.1-.985 3.1-2.2 0-1.213-1.387-2.2-3.1-2.2zm10.368.334c-1.713 0-3.1.986-3.1 2.2 0 1.214 1.387 2.2 3.1 2.2 1.71 0 3.1-.986 3.1-2.2 0-1.213-1.39-2.2-3.1-2.2z"/>
    </g>
    <g id="icon-linkedin">
      <title id="title-linkedin">LinkedIn</title>
      <desc id="desc-linkedin">Go to Alex&apos;s LinkedIn profile</desc>
      <path d="M411.945 50h-312c-27.614 0-50 22.386-50 50v312c0 27.614 22.386 50 50 50h312c27.614 0 50-22.386 50-50V100c0-27.614-22.385-50-50-50zm-230.95 342.99H124.46V210.336h56.536V392.99zm-28.538-206.573c-18.465 0-33.432-15.09-33.432-33.703 0-18.614 14.967-33.704 33.432-33.704 18.463 0 33.432 15.09 33.432 33.704 0 18.613-14.97 33.703-33.433 33.703zM392.865 392.99h-56.262v-95.88c0-26.297-9.988-40.975-30.78-40.975-22.63 0-34.454 15.29-34.454 40.974v95.88h-54.224V210.336h54.223v24.6s16.308-30.172 55.04-30.172 66.455 23.648 66.455 72.572V392.99z"/>
    </g>
    <g id="icon-google-plus">
      <title id="title-google-plus">Google+</title>
      <desc id="desc-google-plus">Go to Alex&apos;s Google+ profile</desc>
      <path d="M209.035 235.67c-22.34-.674-43.568-21.165-47.425-50.5-3.858-29.34 11.122-51.788 33.458-51.123 22.33.67 41.44 24.737 45.294 54.07 3.853 29.338-9 48.216-31.327 47.552zm-4.583 60.032c-33.28-.366-61.48 21.03-61.48 45.83 0 25.308 24.032 46.374 57.313 46.374 42.547 0 63.102-19.773 63.102-45.082 0-24.126-22.01-47.122-58.935-47.122zM461.945 101v312c0 27.614-22.386 50-50 50h-312c-27.614 0-50-22.386-50-50V101c0-27.614 22.386-50 50-50h312c27.615 0 50 22.386 50 50zm-169.89 238.882c0-23.364-8.725-38.63-35.12-58.406-26.77-19.524-33.313-30.555-7.76-50.31 14.397-11.133 24.487-25.973 24.487-44.295 0-19.96-8.162-38.07-23.51-46.863h21.755l18.52-19.438H207.55c-51.737 0-77.106 31.01-77.106 65.12 0 34.862 23.915 62.317 70.615 62.317-7.24 14.617-4.333 28.117 7.513 37.77-79.76 0-96.826 35-96.826 61.958 0 34.932 40.154 55.7 88.303 55.7 65.835 0 92.004-34.892 92.004-63.553zm108.09-177.256H361.91V124.39h-19.117v38.236h-38.235v19.117h38.235v38.235h19.117v-38.235h38.235v-19.117z"/>
    </g>
    <g id="icon-rss">
      <title id="title-rss">RSS Feed</title>
      <desc id="desc-rss">Go to Alex&apos;s personal RSS feed</desc>
      <path d="M412 50H100c-27.614 0-50 22.386-50 50v312c0 27.614 22.386 50 50 50h312c27.614 0 50-22.386 50-50V100c0-27.614-22.386-50-50-50zM151.005 400.2c-21.554 0-39.026-17.472-39.026-39.026 0-21.553 17.472-39.024 39.025-39.024s39.024 17.472 39.024 39.024c0 21.555-17.47 39.026-39.025 39.026zm93.263 0c-.747-72.618-59.672-131.542-132.29-132.288v-57.815c104.664.747 189.356 85.44 190.105 190.103h-57.815zm97.933 0c-.173-61.52-24.204-119.335-67.727-162.856-43.436-43.437-101.108-67.456-162.495-67.723V111.8c158.955.556 287.68 129.4 288.043 288.4H342.2z"/>
    </g>
    <g id="icon-mail">
      <title id="title-mail">Email</title>
      <desc id="desc-mail">Send Alex an email and say hello</desc>
      <path d="M170.544 239.052L50 146.454v213.142l120.544-120.544zm290.384-135.645H51.416L256.01 260.57l204.918-157.163zm-147.573 157.29L255.99 304.69l-57.453-44.135L50.5 408.593h410.75L313.356 260.696zm28.012-21.485L462 359.845V146.693l-120.633 92.52z"/>
    </g>
    <g id="header-triangles-banner" stroke-linejoin="round" stroke-miterlimit="1">
      <path fill="#6c828b" stroke="#6c828b" d="M424 4L-3-2l289 14z"/><path fill="#566a7e" stroke="#566a7e" d="M486 0L-3-2l427 6zM750-2L486 0h138z"/><path fill="#566d7f" stroke="#566d7f" d="M1001 99l-232-4-206 4z"/><path fill="#5f7383" stroke="#5f7383" d="M1001 99l-186-6-46 2z"/><path fill="#587c82" stroke="#587c82" d="M1355 99l-183-12-171 12z"/><path fill="#5ca38a" stroke="#5ca38a" d="M1382-2h-381l140 3z"/><path fill="#57a588" stroke="#57a588" d="M1479 95l-106 3-18 1z"/><path fill="#567781" stroke="#567781" d="M1703 99l-78-6h-33z"/><path fill="#567b81" stroke="#567b81" d="M1703 99l-111-6-113 2z"/><path fill="#579285" stroke="#579285" d="M1703 99l-224-4-124 4z"/><path fill="#576b7f" stroke="#576b7f" d="M1729-2h-347l211 4z"/><path fill="#86daa2" stroke="#86daa2" d="M2019 28l-4-4v10z"/><path fill="#586c80" stroke="#586c80" d="M2019 99h-316z"/><path fill="#5e8185" stroke="#5e8185" d="M2019 99l-52-15-82 9z"/><path fill="#566c7f" stroke="#566c7f" d="M2019 99l-134-6-48 6z"/><path fill="#94ffae" stroke="#94ffae" d="M2019 33l-4 1 4 3z"/><path fill="#90f9ab" stroke="#90f9ab" d="M2019 33v-5l-4 6z"/><path fill="#9cffb5" stroke="#9cffb5" d="M2019 48V37l-4-3z"/><path fill="#6ba690" stroke="#6ba690" d="M2019 61l-52 23 52 11z"/><path fill="#668388" stroke="#668388" d="M2019-2l-160 34 99-6z"/><path fill="#586b7f" stroke="#586b7f" d="M2019-2h-290l130 34z"/><path fill="#566a7e" stroke="#566a7e" d="M2019-2l-61 28 57-2zM2019-2l-4 26 4 4z"/><path fill="#a2ffba" stroke="#a2ffba" d="M2019 49v-1l-4-14z"/><path fill="#566a7e" stroke="#566a7e" d="M2019 49l-4-15-57-8zM2019 49l-61-23 9 58z"/><path fill="#6c9b8e" stroke="#6c9b8e" d="M2019 49l-52 35 52-23z"/><path fill="#6aa48f" stroke="#6aa48f" d="M2019 99v-4l-52-11z"/><path fill="#69a48f" stroke="#69a48f" d="M2019 99l-52-15 52 15z"/><path fill="#566a7e" stroke="#566a7e" d="M2015 34V24l-57 2z"/><path fill="#566c7f" stroke="#566c7f" d="M1355 99l-17-3-166-9z"/><path fill="#566a7e" stroke="#566a7e" d="M1837 99l-28-8-106 8zM1859 32L1729-2l74 36z"/><path fill="#618587" stroke="#618587" d="M1967 84l-9-58-73 67z"/><path fill="#68928c" stroke="#68928c" d="M1958 26l-99 6 26 61z"/><path fill="#566a7e" stroke="#566a7e" d="M1859 32l-21 25 17 35z"/><path fill="#6ca890" stroke="#6ca890" d="M1885 93l-30-1-18 7z"/><path fill="#8cf9a9" stroke="#8cf9a9" d="M1885 93l-26-61-4 60z"/><path fill="#6ea891" stroke="#6ea891" d="M1855 92l-17-35-1 42z"/><path fill="#70a591" stroke="#70a591" d="M1859 32l-56 2 35 23z"/><path fill="#566d7f" stroke="#566d7f" d="M442 99l-38-1-105 1z"/><path fill="#566a7e" stroke="#566a7e" d="M1729-2l-136 4 84 9z"/><path fill="#5a6e81" stroke="#5a6e81" d="M1809 91l-26-12-80 20z"/><path fill="#566a7e" stroke="#566a7e" d="M1838 57l-35-23 4 33z"/><path fill="#6eab92" stroke="#6eab92" d="M1838 57l-29 34 28 8z"/><path fill="#566a7e" stroke="#566a7e" d="M1838 57l-31 10 2 24z"/><path fill="#619289" stroke="#619289" d="M1807 67l-4-33-13 35z"/><path fill="#566a7e" stroke="#566a7e" d="M1809 91l-2-24-17 2z"/><path fill="#87efa6" stroke="#87efa6" d="M1809 91l-19-22-7 10z"/><path fill="#566a7e" stroke="#566a7e" d="M1803 34l-24 36 11-1zM1803 34l-74-36 50 72zM1779 70l-50-72 1 69zM1783 79l-53-12-27 32zM1790 69l-11 1 4 9zM1677 11l-84-9 38 11z"/><path fill="#576f80" stroke="#576f80" d="M1783 79l-4-9-49-3z"/><path fill="#658d8a" stroke="#658d8a" d="M1141 1l-140-3 74 5z"/><path fill="#567d82" stroke="#567d82" d="M1338 96l-68-10-98 1z"/><path fill="#65ff9c" stroke="#65ff9c" d="M1572 10L1382-2l23 9z"/><path fill="#596d80" stroke="#596d80" d="M1593 2l-211-4 190 12z"/><path fill="#68998d" stroke="#68998d" d="M1730 67l-47-37 14 54z"/><path fill="#566a7e" stroke="#566a7e" d="M1730 67l-1-69-45 24zM1730 67l-46-45-1 8zM1730 67l-33 17 6 15z"/><path fill="#78a094" stroke="#78a094" d="M1729-2l-52 13 7 11z"/><path fill="#78bd98" stroke="#78bd98" d="M1697 84l-14-54-16 35z"/><path fill="#75c298" stroke="#75c298" d="M1703 99l-6-15-45-11z"/><path fill="#566a7e" stroke="#566a7e" d="M1703 99l-51-26-27 20z"/><path fill="#588484" stroke="#588484" d="M1697 84l-30-19-15 8z"/><path fill="#566a7e" stroke="#566a7e" d="M1683 30l-14-4-2 39z"/><path fill="#88cda1" stroke="#88cda1" d="M1684 22l-15 4 14 4z"/><path fill="#80eaa2" stroke="#80eaa2" d="M1684 22l-7-11-8 15z"/><path fill="#566a7e" stroke="#566a7e" d="M1677 11l-46 2 38 13z"/><path fill="#7fd49f" stroke="#7fd49f" d="M1652 73l-21-60-20 17z"/><path fill="#566a7e" stroke="#566a7e" d="M1652 73l-41-43 18 43zM1669 26l-17 47 15-8z"/><path fill="#71c497" stroke="#71c497" d="M1669 26l-38-13 21 60z"/><path fill="#78b497" stroke="#78b497" d="M1652 73h-23l-4 20z"/><path fill="#57a488" stroke="#57a488" d="M1572 10l-167-3 53 24z"/><path fill="#567080" stroke="#567080" d="M1629 73l-24 1 20 19z"/><path fill="#566a7e" stroke="#566a7e" d="M1629 73l-18-43-6 44z"/><path fill="#80f1a3" stroke="#80f1a3" d="M1631 13l-38-11 18 28z"/><path fill="#567c81" stroke="#567c81" d="M1611 30l-21 10 15 34z"/><path fill="#57ae8a" stroke="#57ae8a" d="M1479 95l-46-6-60 9z"/><path fill="#566a7f" stroke="#566a7f" d="M1625 93l-20-19-13 19z"/><path fill="#5c6f82" stroke="#5c6f82" d="M1592 93l-98-10-15 12z"/><path fill="#8bd2a2" stroke="#8bd2a2" d="M1611 30l-18-28-13 27z"/><path fill="#5d6f82" stroke="#5d6f82" d="M1611 30l-31-1 10 11z"/><path fill="#566a7e" stroke="#566a7e" d="M1605 74l-15-34 2 53z"/><path fill="#567781" stroke="#567781" d="M1592 93l-2-53-35-7z"/><path fill="#568984" stroke="#568984" d="M1593 2l-21 8 8 19z"/><path fill="#6e7d8b" stroke="#6e7d8b" d="M1572 10l-114 21 21 9z"/><path fill="#566a7e" stroke="#566a7e" d="M1590 40l-10-11-25 4z"/><path fill="#566d7f" stroke="#566d7f" d="M1592 93l-37-60-61 50z"/><path fill="#5a6d81" stroke="#5a6d81" d="M1580 29l-8-19-17 23z"/><path fill="#58b98c" stroke="#58b98c" d="M1572 10l-93 30 76-7z"/><path fill="#566a7e" stroke="#566a7e" d="M286 12L-3-2l47 6z"/><path fill="#579786" stroke="#579786" d="M1555 33l-76 7 15 43z"/><path fill="#92eeaa" stroke="#92eeaa" d="M1489 86l-10-46v55z"/><path fill="#8aaf9d" stroke="#8aaf9d" d="M1494 83l-5 3-10 9z"/><path fill="#7ead98" stroke="#7ead98" d="M1494 83l-15-43 10 46z"/><path fill="#80e8a2" stroke="#80e8a2" d="M1458 31l-53-24 35 25z"/><path fill="#58bc8c" stroke="#58bc8c" d="M1479 40l-21-9-25 58z"/><path fill="#85b19b" stroke="#85b19b" d="M1479 95V40l-46 49z"/><path fill="#58d390" stroke="#58d390" d="M1458 31l-18 1-7 57z"/><path fill="#566a7e" stroke="#566a7e" d="M1382-2l-241 3 204 18z"/><path fill="#999fa0" stroke="#999fa0" d="M1440 32l-22 5 15 52z"/><path fill="#568483" stroke="#568483" d="M1433 89l-15-52-26 7z"/><path fill="#57ae8a" stroke="#57ae8a" d="M1440 32l-35-25 13 30z"/><path fill="#59ae8a" stroke="#59ae8a" d="M1433 89l-41-45-25 30z"/><path fill="#57b18a" stroke="#57b18a" d="M1433 89l-66-15 6 24z"/><path fill="#5a8f86" stroke="#5a8f86" d="M1345 19L1141 1l108 42z"/><path fill="#72808c" stroke="#72808c" d="M1418 37l-13-30-13 37z"/><path fill="#566f7f" stroke="#566f7f" d="M1392 44l-10-46-17 41z"/><path fill="#708e8e" stroke="#708e8e" d="M1405 7l-23-9 10 46z"/><path fill="#77848f" stroke="#77848f" d="M1392 44l-27-5 2 35z"/><path fill="#57b78b" stroke="#57b78b" d="M1382-2l-37 21 20 20z"/><path fill="#929a9d" stroke="#929a9d" d="M1367 74l-2-35-17 6z"/><path fill="#568483" stroke="#568483" d="M1373 98l-6-24-12 25z"/><path fill="#8f989b" stroke="#8f989b" d="M1365 39l-20-20 3 26z"/><path fill="#78858f" stroke="#78858f" d="M1367 74l-29 22 17 3z"/><path fill="#59e192" stroke="#59e192" d="M1367 74l-19-29-10 51z"/><path fill="#5e7d84" stroke="#5e7d84" d="M1348 45l-78 41 68 10z"/><path fill="#576b7f" stroke="#576b7f" d="M1348 45l-3-26-96 24z"/><path fill="#637485" stroke="#637485" d="M1348 45l-99-2 21 43z"/><path fill="#566a7e" stroke="#566a7e" d="M78 99h-94z"/><path fill="#567680" stroke="#567680" d="M1172 87l-83-10-88 22z"/><path fill="#566b7f" stroke="#566b7f" d="M1270 86l-71-14-13 6z"/><path fill="#578f85" stroke="#578f85" d="M1270 86l-84-8-14 9z"/><path fill="#579c87" stroke="#579c87" d="M1270 86l-21-43-50 29z"/><path fill="#5f7183" stroke="#5f7183" d="M1199 72l-58-71-1 15z"/><path fill="#71808c" stroke="#71808c" d="M1249 43L1141 1l58 71z"/><path fill="#58c18d" stroke="#58c18d" d="M1199 72l-59-56 46 62z"/><path fill="#579385" stroke="#579385" d="M1186 78l-46-62 32 71z"/><path fill="#667787" stroke="#667787" d="M1089 77l-78 15-10 7z"/><path fill="#657686" stroke="#657686" d="M1172 87l-32-71-51 61z"/><path fill="#566a7e" stroke="#566a7e" d="M624 0H486l29 3z"/><path fill="#667786" stroke="#667786" d="M1001 99l-89-21-97 15z"/><path fill="#579285" stroke="#579285" d="M1089 77l-31-4-47 19z"/><path fill="#9aa0a0" stroke="#9aa0a0" d="M1089 77l-3-56-12 19z"/><path fill="#57b18a" stroke="#57b18a" d="M1140 16l-6-9-48 14z"/><path fill="#597982" stroke="#597982" d="M1140 16l-54 5 3 56z"/><path fill="#6d838b" stroke="#6d838b" d="M1141 1l-66 2 59 4z"/><path fill="#58d791" stroke="#58d791" d="M1141 1l-7 6 6 9z"/><path fill="#7c8891" stroke="#7c8891" d="M1134 7l-59-4 11 18z"/><path fill="#6b7a89" stroke="#6b7a89" d="M1089 77l-15-37-10 17z"/><path fill="#57a688" stroke="#57a688" d="M1089 77l-25-20-6 16z"/><path fill="#58dd92" stroke="#58dd92" d="M1086 21l-11-18-1 37z"/><path fill="#6f7e8b" stroke="#6f7e8b" d="M1074 40l-73-42 63 59z"/><path fill="#5e8385" stroke="#5e8385" d="M1075 3l-74-5 73 42z"/><path fill="#597882" stroke="#597882" d="M1064 57l-55 22 49-6z"/><path fill="#627384" stroke="#627384" d="M1064 57l-63-59 8 81z"/><path fill="#828d95" stroke="#828d95" d="M1058 73l-49 6 2 13z"/><path fill="#5b8e86" stroke="#5b8e86" d="M988-2H875l30 15z"/><path fill="#567881" stroke="#567881" d="M1009 79L988-2l-80 38z"/><path fill="#5b6e81" stroke="#5b6e81" d="M1009 79L908 36l4 42z"/><path fill="#579586" stroke="#579586" d="M1009 79l-8-81h-13z"/><path fill="#59ee94" stroke="#59ee94" d="M1011 92l-2-13-8 20z"/><path fill="#677887" stroke="#677887" d="M1009 79l-97-1 89 21z"/><path fill="#566a7e" stroke="#566a7e" d="M750-2L624 0l28 4z"/><path fill="#5f7a85" stroke="#5f7a85" d="M988-2l-83 15 3 23z"/><path fill="#607283" stroke="#607283" d="M286 12L44 4l58 9z"/><path fill="#76838e" stroke="#76838e" d="M912 78l-12-24-64 28z"/><path fill="#75838e" stroke="#75838e" d="M912 78l-76 4-21 11z"/><path fill="#989f9f" stroke="#989f9f" d="M912 78l-4-42-8 18z"/><path fill="#608086" stroke="#608086" d="M908 36l-3-23-41 7z"/><path fill="#57ae8a" stroke="#57ae8a" d="M908 36l-44-16 36 34z"/><path fill="#568f85" stroke="#568f85" d="M905 13L875-2l-11 22z"/><path fill="#6c7b89" stroke="#6c7b89" d="M900 54l-55-21-13 33z"/><path fill="#7b8891" stroke="#7b8891" d="M900 54l-68 12 4 16z"/><path fill="#57a488" stroke="#57a488" d="M900 54l-36-34-19 13z"/><path fill="#58cb8f" stroke="#58cb8f" d="M875-2h-28l17 22z"/><path fill="#939a9d" stroke="#939a9d" d="M864 20L847-2l-3 14z"/><path fill="#58c58d" stroke="#58c58d" d="M864 20l-20-8 1 21z"/><path fill="#578683" stroke="#578683" d="M769 95L630 71l-67 28z"/><path fill="#59f195" stroke="#59f195" d="M845 33l-21 30 5 1z"/><path fill="#58be8c" stroke="#58be8c" d="M845 33l-16 31 3 2z"/><path fill="#5c7e84" stroke="#5c7e84" d="M845 33l-1-21-26 9z"/><path fill="#57b78b" stroke="#57b78b" d="M847-2l-29 23 26-9z"/><path fill="#5c7e84" stroke="#5c7e84" d="M847-2h-97l68 23z"/><path fill="#57a288" stroke="#57a288" d="M845 33l-27-12 6 42z"/><path fill="#598584" stroke="#598584" d="M769 95l-46-23-93-1z"/><path fill="#979e9f" stroke="#979e9f" d="M824 63l-6-42-6 43z"/><path fill="#889297" stroke="#889297" d="M836 82l-12-19-12 1z"/><path fill="#579085" stroke="#579085" d="M836 82l-24-18 3 29z"/><path fill="#989f9f" stroke="#989f9f" d="M836 82l-7-18-5-1z"/><path fill="#9da2a2" stroke="#9da2a2" d="M836 82l-4-16-3-2z"/><path fill="#568c84" stroke="#568c84" d="M818 21l-34 23 28 20z"/><path fill="#6e7d8a" stroke="#6e7d8a" d="M815 93l-3-29-43 31z"/><path fill="#598985" stroke="#598985" d="M818 21L750-2l34 46z"/><path fill="#58d390" stroke="#58d390" d="M812 64l-28-20-3 7z"/><path fill="#76838e" stroke="#76838e" d="M812 64l-31-13-12 44z"/><path fill="#566a7e" stroke="#566a7e" d="M750-2l-98 6 76 3z"/><path fill="#57aa89" stroke="#57aa89" d="M781 51L728 7l-13 19z"/><path fill="#6c7b89" stroke="#6c7b89" d="M781 51l-58 21 46 23z"/><path fill="#879197" stroke="#879197" d="M784 44L728 7l53 44z"/><path fill="#57a789" stroke="#57a789" d="M784 44L750-2l-22 9z"/><path fill="#579a86" stroke="#579a86" d="M781 51l-66-25 8 46z"/><path fill="#718b8e" stroke="#718b8e" d="M299 99L187 89 78 99z"/><path fill="#77848f" stroke="#77848f" d="M728 7l-76-3 17 10z"/><path fill="#879197" stroke="#879197" d="M728 7l-59 7 46 12z"/><path fill="#72808c" stroke="#72808c" d="M723 72l-8-46-46-12z"/><path fill="#7b8891" stroke="#7b8891" d="M723 72l-54-58-39 57z"/><path fill="#949b9d" stroke="#949b9d" d="M669 14L652 4l-20 27z"/><path fill="#5b8585" stroke="#5b8585" d="M669 14l-37 17-2 40z"/><path fill="#567a81" stroke="#567a81" d="M652 4l-28-4 8 31z"/><path fill="#7d8992" stroke="#7d8992" d="M624 0L515 3l44 22z"/><path fill="#788590" stroke="#788590" d="M632 31l-65 8 63 32z"/><path fill="#689c8d" stroke="#689c8d" d="M632 31l-8-31-57 39z"/><path fill="#5ca38a" stroke="#5ca38a" d="M630 71l-63-32-4 60z"/><path fill="#7b8791" stroke="#7b8791" d="M624 0l-65 25 8 14z"/><path fill="#7b9192" stroke="#7b9192" d="M563 99l-13-39-2 39z"/><path fill="#57b38b" stroke="#57b38b" d="M567 39l-17 21 13 39z"/><path fill="#838d95" stroke="#838d95" d="M567 39l-8-14-9 35z"/><path fill="#7a9793" stroke="#7a9793" d="M548 99l-64-24-42 24z"/><path fill="#7a8791" stroke="#7a8791" d="M559 25L515 3l-5 21z"/><path fill="#62a08b" stroke="#62a08b" d="M559 25l-49 10 40 25z"/><path fill="#627485" stroke="#627485" d="M559 25l-49-1v11z"/><path fill="#648488" stroke="#648488" d="M550 60l-41 3 39 36z"/><path fill="#8e979a" stroke="#8e979a" d="M550 60l-40-25-1 28z"/><path fill="#77be98" stroke="#77be98" d="M548 99l-39-36-25 12z"/><path fill="#58c88e" stroke="#58c88e" d="M515 3l-29-3 24 24z"/><path fill="#6dc796" stroke="#6dc796" d="M510 35l-26 40 25-12z"/><path fill="#58d490" stroke="#58d490" d="M510 24L486 0l24 35z"/><path fill="#919e9c" stroke="#919e9c" d="M510 35L486 0l-46 19z"/><path fill="#959c9e" stroke="#959c9e" d="M510 35l-70-16 44 56z"/><path fill="#9bcfa8" stroke="#9bcfa8" d="M484 75l-44-56-8 47z"/><path fill="#566a7e" stroke="#566a7e" d="M486 0l-62 4 16 15z"/><path fill="#9bdbaa" stroke="#9bdbaa" d="M484 75l-52-9 10 33z"/><path fill="#6e828b" stroke="#6e828b" d="M424 4l-138 8 49 21z"/><path fill="#a2edaf" stroke="#a2edaf" d="M440 19l-34 8 26 39z"/><path fill="#949b9d" stroke="#949b9d" d="M442 99l-10-33-28 32z"/><path fill="#a2f4b0" stroke="#a2f4b0" d="M440 19L424 4l-18 23z"/><path fill="#828d95" stroke="#828d95" d="M432 66l-38 15 10 17z"/><path fill="#8ba39b" stroke="#8ba39b" d="M432 66l-26-39-18 22z"/><path fill="#7f8a93" stroke="#7f8a93" d="M432 66l-44-17 6 32z"/><path fill="#5c6f82" stroke="#5c6f82" d="M424 4l-89 29 71-6z"/><path fill="#607584" stroke="#607584" d="M286 12l-184 1 54 16z"/><path fill="#78858f" stroke="#78858f" d="M404 98l-44-25-61 26z"/><path fill="#758c8f" stroke="#758c8f" d="M406 27l-71 6 53 16z"/><path fill="#9fefaf" stroke="#9fefaf" d="M404 98l-10-17-34-8z"/><path fill="#85a499" stroke="#85a499" d="M394 81l-6-32-28 24z"/><path fill="#596c80" stroke="#596c80" d="M388 49l-53-16 22 29z"/><path fill="#789191" stroke="#789191" d="M388 49l-31 13 3 11z"/><path fill="#566a7e" stroke="#566a7e" d="M357 62l-22-29 6 35z"/><path fill="#576b7f" stroke="#576b7f" d="M360 73l-3-11-16 6z"/><path fill="#7fd39e" stroke="#7fd39e" d="M360 73l-19-5-42 31z"/><path fill="#566a7e" stroke="#566a7e" d="M341 68l-6-35-51 50z"/><path fill="#667786" stroke="#667786" d="M341 68l-57 15 15 16z"/><path fill="#566a7e" stroke="#566a7e" d="M335 33l-49-21-19 47zM335 33l-68 26 17 24z"/><path fill="#9dffb3" stroke="#9dffb3" d="M284 83l-17-24 2 13z"/><path fill="#9af8ae" stroke="#9af8ae" d="M299 99l-15-16-26-4z"/><path fill="#648488" stroke="#648488" d="M299 99l-41-20-71 10z"/><path fill="#667787" stroke="#667787" d="M286 12L175 50l58 16z"/><path fill="#586c80" stroke="#586c80" d="M286 12L156 29l19 21z"/><path fill="#566a7e" stroke="#566a7e" d="M286 12l-53 54 34-7z"/><path fill="#739390" stroke="#739390" d="M284 83l-15-11-11 7z"/><path fill="#639189" stroke="#639189" d="M258 79l-17-11-54 21z"/><path fill="#6fb493" stroke="#6fb493" d="M267 59l-34 7 8 2z"/><path fill="#566a7e" stroke="#566a7e" d="M269 72l-2-13-9 20zM267 59l-26 9 17 11zM241 68l-8-2-46 23z"/><path fill="#697988" stroke="#697988" d="M233 66l-50 15 4 8z"/><path fill="#687f89" stroke="#687f89" d="M233 66l-58-16 8 31z"/><path fill="#648688" stroke="#648688" d="M183 81l-8-31-21 20z"/><path fill="#576b7f" stroke="#576b7f" d="M187 89l-46-13-63 23z"/><path fill="#8bdaa4" stroke="#8bdaa4" d="M187 89l-4-8-29-11z"/><path fill="#82c29d" stroke="#82c29d" d="M187 89l-33-19-13 6z"/><path fill="#87d8a2" stroke="#87d8a2" d="M175 50l-19-21-2 41z"/><path fill="#95fead" stroke="#95fead" d="M156 29l-21 37 19 4z"/><path fill="#68888a" stroke="#68888a" d="M156 29l-42 8 21 29z"/><path fill="#566a7e" stroke="#566a7e" d="M156 29l-54-16 12 24z"/><path fill="#82dda1" stroke="#82dda1" d="M154 70l-19-4 6 10z"/><path fill="#6c978e" stroke="#6c978e" d="M141 76l-6-10-57 33z"/><path fill="#70a491" stroke="#70a491" d="M135 66l-21-29-36 62z"/><path fill="#566a7e" stroke="#566a7e" d="M78 99l-7-52-2 47zM114 37l-12-24-14 8zM114 37L88 21 71 47zM114 37L71 47l7 52zM78 99l-9-5-68 5z"/><path fill="#66938b" stroke="#66938b" d="M102 13L44 4l44 17z"/><path fill="#6c928d" stroke="#6c928d" d="M88 21L44 4l24 24z"/><path fill="#566a7e" stroke="#566a7e" d="M88 21l-20 7 3 19zM71 47L24 80l45 14z"/><path fill="#77b497" stroke="#77b497" d="M71 47l-3-19-6 12z"/><path fill="#5b7e84" stroke="#5b7e84" d="M69 94L24 80 1 99z"/><path fill="#566a7e" stroke="#566a7e" d="M71 47l-9-7-38 40z"/><path fill="#94ffae" stroke="#94ffae" d="M68 28L44 4l18 36z"/><path fill="#68918b" stroke="#68918b" d="M62 40L24 23l-8 15z"/><path fill="#566a7e" stroke="#566a7e" d="M62 40L12 51l12 29zM62 40l-46-2-4 13z"/><path fill="#79b798" stroke="#79b798" d="M62 40L44 4 24 23z"/><path fill="#73a893" stroke="#73a893" d="M44 4L8 10l16 13z"/><path fill="#566a7e" stroke="#566a7e" d="M44 4L-3-2 8 10z"/><path fill="#93ffad" stroke="#93ffad" d="M24 23L8 10l8 28z"/><path fill="#566a7e" stroke="#566a7e" d="M24 80L12 51l-28 30zM24 80l-40 1L1 99z"/><path fill="#6c948d" stroke="#6c948d" d="M12 51l-28 4v26z"/><path fill="#8ceaa7" stroke="#8ceaa7" d="M16 38L8 10l-24 19z"/><path fill="#658588" stroke="#658588" d="M16 38l-32 11 28 2z"/><path fill="#566a7e" stroke="#566a7e" d="M16 38l-32-9v20zM8 10l-24 3v16zM12 51l-28 2v2z"/><path fill="#678c8a" stroke="#678c8a" d="M12 51l-28-2v4z"/><path fill="#566a7e" stroke="#566a7e" d="M8 10L-3-2l-13 9zM8 10l-24-3v6z"/><path fill="#648788" stroke="#648788" d="M1 99l-17-18v18z"/><path fill="#84dba1" stroke="#84dba1" d="M-3-2l-13 3v6z"/><path fill="#5b7181" stroke="#5b7181" d="M-3-2h-13v3z"/>
    </g>
    <g id="icon-time">
      <path d="M367 295.5H227.5V142h45v108.5H367v45zM256 95c-88.992 0-161 72.022-161 161 0 88.992 72.023 161 161 161 88.992 0 161-72.023 161-161 0-88.993-72.023-161-161-161m0-45c113.77 0 206 92.23 206 206s-92.23 206-206 206S50 369.77 50 256 142.23 50 256 50z"/>
    </g>
    <g id="icon-chevron">
      <path d="M142.332 104.886L197.48 50 402.5 256 197.48 462l-55.148-54.887L292.727 256z"/>
    </g>
    <g id="icon-video">
      <title id="title-video">Video</title>
      <desc id="desc-video">Watch the video of this talk</desc>
      <path d="M458.388 180.186c-6.477-55.046-28.296-62.633-71.718-65.586-61.736-4.2-199.56-4.203-261.34 0-43.42 2.954-65.24 10.54-71.717 65.586-4.81 40.867-4.825 110.62 0 151.627C60.09 386.86 81.91 394.446 125.33 397.4c61.78 4.203 199.604 4.2 261.34 0 43.422-2.954 65.24-10.54 71.718-65.587 4.808-40.867 4.824-110.618 0-151.627zM214.974 313.524V198.602l110.208 57.462-110.208 57.46z"/>
    </g>
    <g id="icon-twitter-share">
      <path class="svg-icon-path" d="M10.8,3.5c0,0.1,0,0.2,0,0.3c0,3.3-2.5,7-7,7c-1.4,0-2.7-0.3-3.8-1c0.2,0,0.4,0,0.6,0c1.1,0,2.2-0.5,3.1-1.2 c-1.1,0-2-0.7-2.3-1.7c0.2,0,0.3,0,0.5,0s0.4,0,0.7-0.1c-1.1-0.2-2-1.2-2-2.4l0,0c0.3,0.2,0.7,0.3,1.1,0.3C1,4.3,0.6,3.5,0.6,2.7 c0-0.5,0.1-0.8,0.3-1.2c1.2,1.6,3,2.5,5,2.6c0-0.2-0.1-0.4-0.1-0.6c0-1.3,1.1-2.4,2.5-2.4c0.7,0,1.4,0.3,1.8,0.8 c0.6-0.1,1.1-0.3,1.6-0.6c-0.2,0.6-0.6,1.1-1.1,1.4c0.5-0.1,1-0.2,1.4-0.4C11.7,2.8,11.2,3.2,10.8,3.5z"/>
    </g>
    <g id="icon-facebook-share">
      <path class="svg-icon-path" d="M9.1,0.1V2H8C7.6,2,7.3,2.1,7.1,2.3C7,2.4,6.9,2.7,6.9,3v1.4H9L8.8,6.5H6.9V12H4.7V6.5H2.9V4.4h1.8V2.8 c0-0.9,0.3-1.6,0.7-2.1C6,0.2,6.6,0,7.5,0C8.2,0,8.7,0,9.1,0.1z"/>
    </g>
    <g id="icon-google-plus-share">
      <path class="svg-icon-path" d="M5.4,5.7c0,0.2,0.1,0.3,0.2,0.5c0.2,0.2,0.3,0.3,0.6,0.5s0.4,0.3,0.7,0.5C7,7.5,7.2,7.7,7.4,8 c0.2,0.3,0.2,0.6,0.2,1c0,0.4-0.1,0.8-0.3,1.2c-0.3,0.6-0.9,1-1.5,1.3S4.3,12,3.6,12c-0.6,0-1.2-0.1-1.8-0.3s-1-0.5-1.2-1 c-0.2-0.3-0.3-0.6-0.3-0.9c0-0.4,0.1-0.7,0.3-1.1c0.2-0.3,0.5-0.6,0.9-0.8c0.6-0.4,1.6-0.6,2.9-0.7C4.2,6.9,4.1,6.8,4,6.6 C4,6.4,3.9,6.3,3.9,6.1c0-0.2,0.1-0.4,0.2-0.6c-0.2,0-0.4,0-0.5,0c-0.7,0-1.3-0.2-1.8-0.7C1.3,4.3,1.1,3.7,1.1,3 c0-0.4,0.1-0.8,0.3-1.1S1.7,1.2,2,0.9c0.4-0.3,0.8-0.6,1.3-0.7C3.9,0.1,4.4,0,4.9,0h3l-1,0.6H6c0.4,0.3,0.6,0.6,0.8,1 s0.3,0.7,0.3,1.2c0,0.3-0.1,0.7-0.2,0.9C6.8,4,6.6,4.2,6.5,4.4C6.3,4.5,6.1,4.7,6,4.8C5.8,5,5.7,5.1,5.5,5.3 C5.4,5.4,5.4,5.6,5.4,5.7z M4.3,11.3c0.3,0,0.5,0,0.8-0.1c0.3-0.1,0.5-0.2,0.7-0.3c0.2-0.1,0.4-0.3,0.5-0.5c0.1-0.2,0.2-0.5,0.2-0.8 c0-0.1,0-0.2-0.1-0.4S6.5,9.1,6.4,9c0-0.1-0.1-0.2-0.2-0.3C6.1,8.6,6.1,8.5,6,8.4c0-0.1-0.1-0.1-0.3-0.2C5.6,8.1,5.5,8,5.5,8 c0,0-0.1-0.1-0.3-0.2C5,7.7,4.9,7.6,4.9,7.6c-0.1,0-0.2,0-0.3,0c-0.3,0-0.5,0-0.8,0.1S3.3,7.7,3,7.8C2.8,7.9,2.5,8,2.3,8.1 C2.1,8.3,2,8.4,1.8,8.7C1.7,8.9,1.6,9.1,1.6,9.4c0,0.3,0.1,0.6,0.3,0.9c0.2,0.3,0.4,0.5,0.7,0.6c0.3,0.1,0.6,0.2,0.9,0.3 S4,11.3,4.3,11.3z M4.3,5c0.2,0,0.4,0,0.6-0.1c0.2-0.1,0.3-0.2,0.5-0.3C5.6,4.3,5.7,4,5.7,3.5c0-0.3,0-0.6-0.1-0.9 C5.5,2.2,5.4,1.9,5.3,1.6C5.1,1.3,4.9,1.1,4.7,0.9S4.1,0.6,3.8,0.6c-0.2,0-0.4,0-0.6,0.1C3,0.8,2.9,1,2.7,1.1 C2.5,1.4,2.4,1.8,2.4,2.3c0,0.2,0,0.5,0.1,0.7c0,0.2,0.1,0.5,0.2,0.7C2.8,4,2.9,4.2,3.1,4.4c0.1,0.2,0.3,0.4,0.5,0.5 C3.8,5,4.1,5,4.3,5z M10.2,5h1.5v0.8h-1.5v1.6H9.4V5.8H7.9V5h1.5V3.5h0.8V5z"/>
    </g>
  </defs>
</svg>
