<svg xmlns="http://www.w3.org/2000/svg">
  <defs>
    <g id="site-logo">
      <title id="title-site-logo">alexdiliberto.com</title>
      <desc id="desc-site-logo">Alex DiLiberto&apos;s website header</desc>
      <path fill="#454545" d="M23.72 30.715l-3.2-8.174h-10.3l-3.164 8.175H4.032L14.192 4.91h2.514l10.107 25.805H23.72zm-4.13-10.863L16.6 11.89c-.386-1.01-.784-2.245-1.194-3.71-.258 1.125-.627 2.36-1.107 3.71l-3.024 7.962h8.313zM32.825 30.715h-2.918V3.365h2.918v27.35zM47.15 31.067c-2.847 0-5.094-.867-6.74-2.602s-2.47-4.143-2.47-7.225c0-3.105.765-5.572 2.294-7.4s3.583-2.742 6.16-2.742c2.415 0 4.325.794 5.73 2.382s2.11 3.683 2.11 6.284v1.846h-13.27c.06 2.262.63 3.98 1.714 5.15s2.61 1.758 4.58 1.758c2.073 0 4.124-.434 6.15-1.3v2.6c-1.03.446-2.006.766-2.926.96s-2.03.29-3.33.29zm-.79-17.525c-1.547 0-2.78.504-3.7 1.512s-1.462 2.402-1.626 4.184h10.072c0-1.84-.41-3.25-1.23-4.228s-1.992-1.468-3.516-1.468zM63.85 20.854l-6.696-9.404h3.322l5.08 7.383 5.063-7.383h3.286l-6.697 9.404 7.048 9.86h-3.305l-5.396-7.804-5.45 7.805h-3.304l7.048-9.86zM99.534 17.62c0 4.23-1.204 7.47-3.612 9.72s-5.886 3.376-10.433 3.376H78.21v-25.7h8.068c4.195 0 7.453 1.107 9.773 3.322s3.48 5.31 3.48 9.282zm-5.66.14c0-5.52-2.438-8.28-7.313-8.28h-2.9v16.735H86c5.25 0 7.874-2.818 7.874-8.455zM104.21 5.983c0-1.746.973-2.62 2.918-2.62s2.918.874 2.918 2.62c0 .832-.243 1.48-.73 1.942s-1.215.694-2.187.694c-1.947 0-2.92-.88-2.92-2.637zm5.59 24.732h-5.36V11.063h5.36v19.652zM115.847 30.715v-25.7h5.45v21.2h10.423v4.5h-15.873zM135.534 5.983c0-1.746.973-2.62 2.918-2.62s2.918.874 2.918 2.62c0 .832-.243 1.48-.73 1.942s-1.215.694-2.187.694c-1.946 0-2.92-.88-2.92-2.637zm5.59 24.732h-5.36V11.063h5.36v19.652zM157.683 10.694c2.32 0 4.136.905 5.45 2.716s1.968 4.292 1.968 7.444c0 3.246-.675 5.76-2.028 7.54s-3.197 2.673-5.53 2.673c-2.308 0-4.118-.838-5.43-2.514h-.37l-.896 2.162h-4.096V3.365h5.36v6.362c0 .81-.07 2.104-.21 3.885h.21c1.254-1.945 3.112-2.918 5.573-2.918zm-1.723 4.29c-1.324 0-2.29.406-2.9 1.22s-.926 2.16-.95 4.035v.58c0 2.108.314 3.62.94 4.534s1.62 1.37 2.98 1.37c1.102 0 1.978-.506 2.628-1.52.65-1.014.975-2.487.975-4.42s-.328-3.385-.984-4.352c-.657-.966-1.553-1.45-2.69-1.45zM178.424 31.067c-3.164 0-5.637-.873-7.418-2.62s-2.672-4.218-2.672-7.417c0-3.293.823-5.84 2.47-7.638s3.923-2.698 6.83-2.698c2.776 0 4.938.79 6.485 2.373s2.32 3.768 2.32 6.557v2.602h-12.675c.06 1.523.51 2.713 1.354 3.568s2.026 1.283 3.55 1.283c1.184 0 2.303-.123 3.357-.37s2.156-.638 3.305-1.177v4.148c-.938.47-1.94.817-3.006 1.046s-2.367.343-3.902.343zm-.756-16.56c-1.137 0-2.027.36-2.672 1.082s-1.014 1.742-1.107 3.066h7.522c-.023-1.324-.37-2.347-1.037-3.067s-1.57-1.082-2.707-1.082zM201.768 10.694c.727 0 1.33.053 1.81.158l-.403 5.027c-.434-.118-.96-.177-1.582-.177-1.71 0-3.044.44-4 1.318s-1.432 2.11-1.432 3.692v10.002h-5.36v-19.65h4.06l.792 3.304h.264c.61-1.102 1.433-1.99 2.47-2.663s2.163-1.01 3.382-1.01zM215.426 26.795c.938 0 2.063-.205 3.375-.615v3.99c-1.335.598-2.976.896-4.92.896-2.146 0-3.707-.542-4.686-1.626s-1.468-2.71-1.468-4.878v-9.475h-2.566V12.82l2.953-1.794 1.547-4.148h3.428v4.184h5.502v4.025h-5.502v9.475c0 .762.214 1.324.642 1.688s.993.545 1.696.545zM240.633 20.854c0 3.2-.844 5.7-2.53 7.506s-4.038 2.707-7.05 2.707c-1.887 0-3.55-.413-4.992-1.24s-2.548-2.012-3.32-3.56-1.16-3.35-1.16-5.413c0-3.21.837-5.707 2.513-7.488s4.03-2.672 7.066-2.672c1.886 0 3.55.41 4.99 1.23s2.55 1.998 3.323 3.533 1.16 3.335 1.16 5.397zm-13.588 0c0 1.945.32 3.416.958 4.412s1.68 1.494 3.12 1.494c1.43 0 2.458-.495 3.085-1.485s.94-2.464.94-4.42c0-1.946-.316-3.405-.95-4.378s-1.67-1.46-3.11-1.46c-1.43 0-2.46.484-3.094 1.45s-.95 2.43-.95 4.387z"/>
    </g>
    <g id="icon-twitter">
      <title id="title-twitter">Twitter</title>
      <desc id="desc-twitter">Go to Alex&apos;s Twitter profile</desc>
      <path d="M412,50H100c-27.614,0-50,22.386-50,50v312c0,27.614,22.386,50,50,50h312c27.614,0,50-22.386,50-50V100C462,72.386,439.614,50,412,50z M371.942,207.125c3.553,79.059-55.408,167.203-159.768,167.203c-31.743,0-61.289-9.305-86.164-25.253c29.821,3.515,59.586-4.758,83.218-23.278c-24.596-0.453-45.356-16.703-52.508-39.035c8.808,1.684,17.473,1.19,25.383-0.962c-27.03-5.433-45.692-29.784-45.083-55.826c7.577,4.211,16.245,6.74,25.46,7.032c-25.034-16.73-32.12-49.786-17.396-75.045c27.723,34.006,69.143,56.385,115.857,58.729c-8.199-35.16,18.474-69.019,54.755-69.019c16.168,0,30.776,6.825,41.029,17.75c12.804-2.52,24.833-7.198,35.694-13.639c-4.197,13.126-13.11,24.141-24.715,31.098c11.37-1.357,22.204-4.379,32.284-8.851C392.454,189.301,382.926,199.201,371.942,207.125z"/>
    </g>
    <g id="icon-github">
      <title id="title-github">GitHub</title>
      <desc id="desc-github">Go to Alex&apos;s GitHub profile</desc>
      <path d="M163.979,317.334c0,0.984-1.125,1.781-2.512,1.781s-2.511-0.797-2.511-1.781c0-0.983,1.124-1.781,2.511-1.781S163.979,316.351,163.979,317.334z M156.401,310.297c-1.248,0-2.26,0.719-2.26,1.604s1.012,1.603,2.26,1.603c1.247,0,2.259-0.718,2.259-1.603S157.648,310.297,156.401,310.297z M167.335,320.854c-1.541,0-2.791,0.888-2.791,1.98c0,1.094,1.25,1.979,2.791,1.979c1.539,0,2.789-0.885,2.789-1.979C170.124,321.741,168.874,320.854,167.335,320.854z M151.801,305.797c-1.067,0-1.933,0.613-1.933,1.371c0,0.757,0.865,1.369,1.933,1.369c1.066,0,1.933-0.612,1.933-1.369C153.733,306.41,152.867,305.797,151.801,305.797zM147.067,302.064c-0.91,0-1.648,0.524-1.648,1.17c0,0.645,0.738,1.168,1.648,1.168c0.909,0,1.647-0.523,1.647-1.168C148.715,302.589,147.977,302.064,147.067,302.064z M142.401,299.115c-0.819,0-1.483,0.471-1.483,1.053c0,0.58,0.664,1.051,1.483,1.051c0.818,0,1.482-0.471,1.482-1.051C143.884,299.586,143.22,299.115,142.401,299.115zM175.269,325.832c-1.713,0-3.101,0.986-3.101,2.201s1.388,2.199,3.101,2.199c1.711,0,3.1-0.984,3.1-2.199S176.979,325.832,175.269,325.832z M205.7,329.266c-1.711,0-3.1,0.986-3.1,2.201s1.389,2.199,3.1,2.199c1.713,0,3.101-0.984,3.101-2.199S207.413,329.266,205.7,329.266z M462,100v312c0,27.614-22.386,50-50,50H100c-27.614,0-50-22.386-50-50V100c0-27.614,22.386-50,50-50h312C439.614,50,462,72.386,462,100z M420.801,250.66c-18.316-1.777-36.534-1.936-54.231-0.584c2.845-9.078,4.344-19.332,4.235-30.992c-0.233-24.771-8.493-44.064-21.474-60.076c2.492-15.082,0.614-30.162-4.09-45.249c-18.549,1.519-35.242,7.594-50.107,18.148c-27.779-5.635-55.557-5.995-83.337,0c-17.339-11.702-34.364-17.441-51.128-18.148c-4.969,16.612-5.734,32.987-1.533,49.086c-14.624,15.518-20.214,34.355-19.939,55.215c0.156,11.941,1.996,22.567,5.391,31.961c-17.438-1.279-35.361-1.108-53.387,0.639l0.295,3.055c18.357-1.782,36.607-1.929,54.336-0.542c0.65,1.579,1.306,3.151,2.053,4.653c-19.208-0.507-36.494,1.162-52.684,5.143l0.73,2.979c16.432-4.038,34.033-5.664,53.686-5.003c12.997,23.091,38.017,36.659,74.451,40.964c-8.465,6.875-13.016,14.985-14.188,24.161c0,0-3.83,0-19.297,0c-25.915,0-32.98-33.043-59.822-29.784c26.04,12.914,20.84,54.193,62.51,54.193c14.004,0,16.98,0,17.506,0v37.837c0.186,6.114-2.476,10.203-6.775,13.038c14.924,1.506,26.139-5.944,26.139-15.084c0-9.141,0-45.559,0-50.014c0-4.456,4.666-4.801,4.666-4.801v58.395c0.197,5.811-2.627,9.113-5.625,12.271c13.147,0.523,25.514-2.103,26.074-13.292c0,0,0-53.076,0-55.887c0-2.81,4.604-2.879,4.604,0s0,53.265,0,53.265c0.136,9.44,8.289,17.094,25.562,15.914c-4.621-3.72-6.039-7.479-6.039-12.921c0-5.439,0-57.744,0-57.744s4.761-0.244,4.761,4.801c0,5.044,0,40.264,0,48.704c0,10.84,13.013,15.312,27.863,14.892c-4.865-3.646-8.158-7.992-8.179-13.805v-58.572c-0.503-8.609-4.003-16.726-10.866-24.287c33.305-5.113,57.311-18.408,69.264-42.236c19.717-0.678,37.371,0.945,53.845,4.996l0.731-2.979c-16.314-4.01-33.744-5.676-53.133-5.131c0.671-1.513,1.336-3.032,1.91-4.629c17.912-1.438,36.366-1.297,54.928,0.506L420.801,250.66z M185.101,328.732c-1.711,0-3.1,0.986-3.1,2.201c0,1.214,1.389,2.199,3.1,2.199c1.713,0,3.1-0.985,3.1-2.199C188.2,329.719,186.813,328.732,185.101,328.732z M195.468,329.066c-1.713,0-3.1,0.986-3.1,2.201c0,1.213,1.387,2.199,3.1,2.199c1.711,0,3.1-0.986,3.1-2.199C198.567,330.053,197.179,329.066,195.468,329.066z"/>
    </g>
    <g id="icon-linkedin">
      <title id="title-linkedin">LinkedIn</title>
      <desc id="desc-linkedin">Go to Alex&apos;s LinkedIn profile</desc>
      <path d="M411.945,50h-312c-27.614,0-50,22.386-50,50v312c0,27.614,22.386,50,50,50h312c27.614,0,50-22.386,50-50V100C461.945,72.386,439.56,50,411.945,50z M180.996,392.99h-56.537V210.336h56.537V392.99zM152.457,186.417c-18.465,0-33.432-15.09-33.432-33.703c0-18.614,14.967-33.704,33.432-33.704c18.463,0,33.432,15.09,33.432,33.704C185.889,171.327,170.92,186.417,152.457,186.417z M392.865,392.99h-56.262c0,0,0-69.582,0-95.881c0-26.296-9.988-40.974-30.781-40.974c-22.629,0-34.453,15.289-34.453,40.974c0,28.133,0,95.881,0,95.881h-54.223V210.336h54.223v24.599c0,0,16.309-30.171,55.041-30.171s66.455,23.648,66.455,72.572C392.865,326.262,392.865,392.99,392.865,392.99z"/>
    </g>
    <g id="icon-google-plus">
      <title id="title-google-plus">Google+</title>
      <desc id="desc-google-plus">Go to Alex&apos;s Google+ profile</desc>
      <path d="M209.035,235.669c-22.34-0.673-43.568-21.164-47.425-50.498c-3.858-29.341,11.122-51.789,33.458-51.124c22.329,0.671,41.439,24.737,45.294,54.07C244.215,217.455,231.363,236.333,209.035,235.669z M204.452,295.702c-33.279-0.366-61.481,21.029-61.481,45.829c0,25.309,24.033,46.375,57.314,46.375c42.547,0,63.102-19.773,63.102-45.082C263.387,318.698,241.378,295.702,204.452,295.702zM461.945,101v312c0,27.614-22.386,50-50,50h-312c-27.614,0-50-22.386-50-50V101c0-27.614,22.386-50,50-50h312C439.56,51,461.945,73.386,461.945,101z M292.054,339.882c0-23.364-8.724-38.63-35.119-58.406c-26.771-19.524-33.313-30.555-7.761-50.31c14.398-11.133,24.488-25.973,24.488-44.295c0-19.961-8.162-38.071-23.51-46.864h21.755l18.521-19.438c0,0-69.817,0-82.879,0c-51.736,0-77.105,31.01-77.105,65.122c0,34.861,23.915,62.316,70.615,62.316c-7.24,14.617-4.332,28.117,7.514,37.771c-79.759,0-96.826,34.998-96.826,61.957c0,34.932,40.154,55.699,88.303,55.699C265.885,403.434,292.054,368.543,292.054,339.882z M400.146,162.626H361.91v-38.235h-19.117v38.235h-38.235v19.117h38.235v38.235h19.117v-38.235h38.235V162.626z"/>
    </g>
    <g id="icon-rss">
      <title id="title-rss">RSS Feed</title>
      <desc id="desc-rss">Go to Alex&apos;s personal RSS feed</desc>
      <path d="M412,50H100c-27.614,0-50,22.386-50,50v312c0,27.614,22.386,50,50,50h312c27.614,0,50-22.386,50-50V100C462,72.386,439.614,50,412,50z M151.005,400.2c-21.554,0-39.026-17.472-39.026-39.026c0-21.553,17.473-39.024,39.026-39.024s39.024,17.472,39.024,39.024C190.029,382.729,172.559,400.2,151.005,400.2z M244.268,400.2c-0.747-72.618-59.672-131.542-132.289-132.288v-57.815c104.663,0.747,189.355,85.44,190.104,190.103H244.268z M342.201,400.2c-0.174-61.521-24.205-119.335-67.728-162.856c-43.436-43.437-101.108-67.456-162.495-67.723V111.8c158.955,0.556,287.681,129.401,288.043,288.4H342.201z"/>
    </g>
    <g id="icon-mail">
      <title id="title-mail">Email</title>
      <desc id="desc-mail">Send Alex an email and say hello</desc>
      <path d="M170.544,239.052L50,146.454v213.142L170.544,239.052z M460.928,103.407H51.416l204.593,157.162L460.928,103.407z M313.355,260.696l-57.364,43.994l-57.454-44.135L50.5,408.593h410.751L313.355,260.696z M341.367,239.212L462,359.845V146.693L341.367,239.212z"/>
    </g>
    <g id="header-triangles-banner" stroke-linejoin="round" stroke-miterlimit="1">
      <path fill="#6c828b" stroke="#6c828b" d="M424 4L-3-2l289 14z"/><path fill="#566a7e" stroke="#566a7e" d="M486 0L-3-2l427 6zM750-2L486 0h138z"/><path fill="#566d7f" stroke="#566d7f" d="M1001 99l-232-4-206 4z"/><path fill="#5f7383" stroke="#5f7383" d="M1001 99l-186-6-46 2z"/><path fill="#587c82" stroke="#587c82" d="M1355 99l-183-12-171 12z"/><path fill="#5ca38a" stroke="#5ca38a" d="M1382-2h-381l140 3z"/><path fill="#57a588" stroke="#57a588" d="M1479 95l-106 3-18 1z"/><path fill="#567781" stroke="#567781" d="M1703 99l-78-6h-33z"/><path fill="#567b81" stroke="#567b81" d="M1703 99l-111-6-113 2z"/><path fill="#579285" stroke="#579285" d="M1703 99l-224-4-124 4z"/><path fill="#576b7f" stroke="#576b7f" d="M1729-2h-347l211 4z"/><path fill="#86daa2" stroke="#86daa2" d="M2019 28l-4-4v10z"/><path fill="#586c80" stroke="#586c80" d="M2019 99h-316z"/><path fill="#5e8185" stroke="#5e8185" d="M2019 99l-52-15-82 9z"/><path fill="#566c7f" stroke="#566c7f" d="M2019 99l-134-6-48 6z"/><path fill="#94ffae" stroke="#94ffae" d="M2019 33l-4 1 4 3z"/><path fill="#90f9ab" stroke="#90f9ab" d="M2019 33v-5l-4 6z"/><path fill="#9cffb5" stroke="#9cffb5" d="M2019 48V37l-4-3z"/><path fill="#6ba690" stroke="#6ba690" d="M2019 61l-52 23 52 11z"/><path fill="#668388" stroke="#668388" d="M2019-2l-160 34 99-6z"/><path fill="#586b7f" stroke="#586b7f" d="M2019-2h-290l130 34z"/><path fill="#566a7e" stroke="#566a7e" d="M2019-2l-61 28 57-2zM2019-2l-4 26 4 4z"/><path fill="#a2ffba" stroke="#a2ffba" d="M2019 49v-1l-4-14z"/><path fill="#566a7e" stroke="#566a7e" d="M2019 49l-4-15-57-8zM2019 49l-61-23 9 58z"/><path fill="#6c9b8e" stroke="#6c9b8e" d="M2019 49l-52 35 52-23z"/><path fill="#6aa48f" stroke="#6aa48f" d="M2019 99v-4l-52-11z"/><path fill="#69a48f" stroke="#69a48f" d="M2019 99l-52-15 52 15z"/><path fill="#566a7e" stroke="#566a7e" d="M2015 34V24l-57 2z"/><path fill="#566c7f" stroke="#566c7f" d="M1355 99l-17-3-166-9z"/><path fill="#566a7e" stroke="#566a7e" d="M1837 99l-28-8-106 8zM1859 32L1729-2l74 36z"/><path fill="#618587" stroke="#618587" d="M1967 84l-9-58-73 67z"/><path fill="#68928c" stroke="#68928c" d="M1958 26l-99 6 26 61z"/><path fill="#566a7e" stroke="#566a7e" d="M1859 32l-21 25 17 35z"/><path fill="#6ca890" stroke="#6ca890" d="M1885 93l-30-1-18 7z"/><path fill="#8cf9a9" stroke="#8cf9a9" d="M1885 93l-26-61-4 60z"/><path fill="#6ea891" stroke="#6ea891" d="M1855 92l-17-35-1 42z"/><path fill="#70a591" stroke="#70a591" d="M1859 32l-56 2 35 23z"/><path fill="#566d7f" stroke="#566d7f" d="M442 99l-38-1-105 1z"/><path fill="#566a7e" stroke="#566a7e" d="M1729-2l-136 4 84 9z"/><path fill="#5a6e81" stroke="#5a6e81" d="M1809 91l-26-12-80 20z"/><path fill="#566a7e" stroke="#566a7e" d="M1838 57l-35-23 4 33z"/><path fill="#6eab92" stroke="#6eab92" d="M1838 57l-29 34 28 8z"/><path fill="#566a7e" stroke="#566a7e" d="M1838 57l-31 10 2 24z"/><path fill="#619289" stroke="#619289" d="M1807 67l-4-33-13 35z"/><path fill="#566a7e" stroke="#566a7e" d="M1809 91l-2-24-17 2z"/><path fill="#87efa6" stroke="#87efa6" d="M1809 91l-19-22-7 10z"/><path fill="#566a7e" stroke="#566a7e" d="M1803 34l-24 36 11-1zM1803 34l-74-36 50 72zM1779 70l-50-72 1 69zM1783 79l-53-12-27 32zM1790 69l-11 1 4 9zM1677 11l-84-9 38 11z"/><path fill="#576f80" stroke="#576f80" d="M1783 79l-4-9-49-3z"/><path fill="#658d8a" stroke="#658d8a" d="M1141 1l-140-3 74 5z"/><path fill="#567d82" stroke="#567d82" d="M1338 96l-68-10-98 1z"/><path fill="#65ff9c" stroke="#65ff9c" d="M1572 10L1382-2l23 9z"/><path fill="#596d80" stroke="#596d80" d="M1593 2l-211-4 190 12z"/><path fill="#68998d" stroke="#68998d" d="M1730 67l-47-37 14 54z"/><path fill="#566a7e" stroke="#566a7e" d="M1730 67l-1-69-45 24zM1730 67l-46-45-1 8zM1730 67l-33 17 6 15z"/><path fill="#78a094" stroke="#78a094" d="M1729-2l-52 13 7 11z"/><path fill="#78bd98" stroke="#78bd98" d="M1697 84l-14-54-16 35z"/><path fill="#75c298" stroke="#75c298" d="M1703 99l-6-15-45-11z"/><path fill="#566a7e" stroke="#566a7e" d="M1703 99l-51-26-27 20z"/><path fill="#588484" stroke="#588484" d="M1697 84l-30-19-15 8z"/><path fill="#566a7e" stroke="#566a7e" d="M1683 30l-14-4-2 39z"/><path fill="#88cda1" stroke="#88cda1" d="M1684 22l-15 4 14 4z"/><path fill="#80eaa2" stroke="#80eaa2" d="M1684 22l-7-11-8 15z"/><path fill="#566a7e" stroke="#566a7e" d="M1677 11l-46 2 38 13z"/><path fill="#7fd49f" stroke="#7fd49f" d="M1652 73l-21-60-20 17z"/><path fill="#566a7e" stroke="#566a7e" d="M1652 73l-41-43 18 43zM1669 26l-17 47 15-8z"/><path fill="#71c497" stroke="#71c497" d="M1669 26l-38-13 21 60z"/><path fill="#78b497" stroke="#78b497" d="M1652 73h-23l-4 20z"/><path fill="#57a488" stroke="#57a488" d="M1572 10l-167-3 53 24z"/><path fill="#567080" stroke="#567080" d="M1629 73l-24 1 20 19z"/><path fill="#566a7e" stroke="#566a7e" d="M1629 73l-18-43-6 44z"/><path fill="#80f1a3" stroke="#80f1a3" d="M1631 13l-38-11 18 28z"/><path fill="#567c81" stroke="#567c81" d="M1611 30l-21 10 15 34z"/><path fill="#57ae8a" stroke="#57ae8a" d="M1479 95l-46-6-60 9z"/><path fill="#566a7f" stroke="#566a7f" d="M1625 93l-20-19-13 19z"/><path fill="#5c6f82" stroke="#5c6f82" d="M1592 93l-98-10-15 12z"/><path fill="#8bd2a2" stroke="#8bd2a2" d="M1611 30l-18-28-13 27z"/><path fill="#5d6f82" stroke="#5d6f82" d="M1611 30l-31-1 10 11z"/><path fill="#566a7e" stroke="#566a7e" d="M1605 74l-15-34 2 53z"/><path fill="#567781" stroke="#567781" d="M1592 93l-2-53-35-7z"/><path fill="#568984" stroke="#568984" d="M1593 2l-21 8 8 19z"/><path fill="#6e7d8b" stroke="#6e7d8b" d="M1572 10l-114 21 21 9z"/><path fill="#566a7e" stroke="#566a7e" d="M1590 40l-10-11-25 4z"/><path fill="#566d7f" stroke="#566d7f" d="M1592 93l-37-60-61 50z"/><path fill="#5a6d81" stroke="#5a6d81" d="M1580 29l-8-19-17 23z"/><path fill="#58b98c" stroke="#58b98c" d="M1572 10l-93 30 76-7z"/><path fill="#566a7e" stroke="#566a7e" d="M286 12L-3-2l47 6z"/><path fill="#579786" stroke="#579786" d="M1555 33l-76 7 15 43z"/><path fill="#92eeaa" stroke="#92eeaa" d="M1489 86l-10-46v55z"/><path fill="#8aaf9d" stroke="#8aaf9d" d="M1494 83l-5 3-10 9z"/><path fill="#7ead98" stroke="#7ead98" d="M1494 83l-15-43 10 46z"/><path fill="#80e8a2" stroke="#80e8a2" d="M1458 31l-53-24 35 25z"/><path fill="#58bc8c" stroke="#58bc8c" d="M1479 40l-21-9-25 58z"/><path fill="#85b19b" stroke="#85b19b" d="M1479 95V40l-46 49z"/><path fill="#58d390" stroke="#58d390" d="M1458 31l-18 1-7 57z"/><path fill="#566a7e" stroke="#566a7e" d="M1382-2l-241 3 204 18z"/><path fill="#999fa0" stroke="#999fa0" d="M1440 32l-22 5 15 52z"/><path fill="#568483" stroke="#568483" d="M1433 89l-15-52-26 7z"/><path fill="#57ae8a" stroke="#57ae8a" d="M1440 32l-35-25 13 30z"/><path fill="#59ae8a" stroke="#59ae8a" d="M1433 89l-41-45-25 30z"/><path fill="#57b18a" stroke="#57b18a" d="M1433 89l-66-15 6 24z"/><path fill="#5a8f86" stroke="#5a8f86" d="M1345 19L1141 1l108 42z"/><path fill="#72808c" stroke="#72808c" d="M1418 37l-13-30-13 37z"/><path fill="#566f7f" stroke="#566f7f" d="M1392 44l-10-46-17 41z"/><path fill="#708e8e" stroke="#708e8e" d="M1405 7l-23-9 10 46z"/><path fill="#77848f" stroke="#77848f" d="M1392 44l-27-5 2 35z"/><path fill="#57b78b" stroke="#57b78b" d="M1382-2l-37 21 20 20z"/><path fill="#929a9d" stroke="#929a9d" d="M1367 74l-2-35-17 6z"/><path fill="#568483" stroke="#568483" d="M1373 98l-6-24-12 25z"/><path fill="#8f989b" stroke="#8f989b" d="M1365 39l-20-20 3 26z"/><path fill="#78858f" stroke="#78858f" d="M1367 74l-29 22 17 3z"/><path fill="#59e192" stroke="#59e192" d="M1367 74l-19-29-10 51z"/><path fill="#5e7d84" stroke="#5e7d84" d="M1348 45l-78 41 68 10z"/><path fill="#576b7f" stroke="#576b7f" d="M1348 45l-3-26-96 24z"/><path fill="#637485" stroke="#637485" d="M1348 45l-99-2 21 43z"/><path fill="#566a7e" stroke="#566a7e" d="M78 99h-94z"/><path fill="#567680" stroke="#567680" d="M1172 87l-83-10-88 22z"/><path fill="#566b7f" stroke="#566b7f" d="M1270 86l-71-14-13 6z"/><path fill="#578f85" stroke="#578f85" d="M1270 86l-84-8-14 9z"/><path fill="#579c87" stroke="#579c87" d="M1270 86l-21-43-50 29z"/><path fill="#5f7183" stroke="#5f7183" d="M1199 72l-58-71-1 15z"/><path fill="#71808c" stroke="#71808c" d="M1249 43L1141 1l58 71z"/><path fill="#58c18d" stroke="#58c18d" d="M1199 72l-59-56 46 62z"/><path fill="#579385" stroke="#579385" d="M1186 78l-46-62 32 71z"/><path fill="#667787" stroke="#667787" d="M1089 77l-78 15-10 7z"/><path fill="#657686" stroke="#657686" d="M1172 87l-32-71-51 61z"/><path fill="#566a7e" stroke="#566a7e" d="M624 0H486l29 3z"/><path fill="#667786" stroke="#667786" d="M1001 99l-89-21-97 15z"/><path fill="#579285" stroke="#579285" d="M1089 77l-31-4-47 19z"/><path fill="#9aa0a0" stroke="#9aa0a0" d="M1089 77l-3-56-12 19z"/><path fill="#57b18a" stroke="#57b18a" d="M1140 16l-6-9-48 14z"/><path fill="#597982" stroke="#597982" d="M1140 16l-54 5 3 56z"/><path fill="#6d838b" stroke="#6d838b" d="M1141 1l-66 2 59 4z"/><path fill="#58d791" stroke="#58d791" d="M1141 1l-7 6 6 9z"/><path fill="#7c8891" stroke="#7c8891" d="M1134 7l-59-4 11 18z"/><path fill="#6b7a89" stroke="#6b7a89" d="M1089 77l-15-37-10 17z"/><path fill="#57a688" stroke="#57a688" d="M1089 77l-25-20-6 16z"/><path fill="#58dd92" stroke="#58dd92" d="M1086 21l-11-18-1 37z"/><path fill="#6f7e8b" stroke="#6f7e8b" d="M1074 40l-73-42 63 59z"/><path fill="#5e8385" stroke="#5e8385" d="M1075 3l-74-5 73 42z"/><path fill="#597882" stroke="#597882" d="M1064 57l-55 22 49-6z"/><path fill="#627384" stroke="#627384" d="M1064 57l-63-59 8 81z"/><path fill="#828d95" stroke="#828d95" d="M1058 73l-49 6 2 13z"/><path fill="#5b8e86" stroke="#5b8e86" d="M988-2H875l30 15z"/><path fill="#567881" stroke="#567881" d="M1009 79L988-2l-80 38z"/><path fill="#5b6e81" stroke="#5b6e81" d="M1009 79L908 36l4 42z"/><path fill="#579586" stroke="#579586" d="M1009 79l-8-81h-13z"/><path fill="#59ee94" stroke="#59ee94" d="M1011 92l-2-13-8 20z"/><path fill="#677887" stroke="#677887" d="M1009 79l-97-1 89 21z"/><path fill="#566a7e" stroke="#566a7e" d="M750-2L624 0l28 4z"/><path fill="#5f7a85" stroke="#5f7a85" d="M988-2l-83 15 3 23z"/><path fill="#607283" stroke="#607283" d="M286 12L44 4l58 9z"/><path fill="#76838e" stroke="#76838e" d="M912 78l-12-24-64 28z"/><path fill="#75838e" stroke="#75838e" d="M912 78l-76 4-21 11z"/><path fill="#989f9f" stroke="#989f9f" d="M912 78l-4-42-8 18z"/><path fill="#608086" stroke="#608086" d="M908 36l-3-23-41 7z"/><path fill="#57ae8a" stroke="#57ae8a" d="M908 36l-44-16 36 34z"/><path fill="#568f85" stroke="#568f85" d="M905 13L875-2l-11 22z"/><path fill="#6c7b89" stroke="#6c7b89" d="M900 54l-55-21-13 33z"/><path fill="#7b8891" stroke="#7b8891" d="M900 54l-68 12 4 16z"/><path fill="#57a488" stroke="#57a488" d="M900 54l-36-34-19 13z"/><path fill="#58cb8f" stroke="#58cb8f" d="M875-2h-28l17 22z"/><path fill="#939a9d" stroke="#939a9d" d="M864 20L847-2l-3 14z"/><path fill="#58c58d" stroke="#58c58d" d="M864 20l-20-8 1 21z"/><path fill="#578683" stroke="#578683" d="M769 95L630 71l-67 28z"/><path fill="#59f195" stroke="#59f195" d="M845 33l-21 30 5 1z"/><path fill="#58be8c" stroke="#58be8c" d="M845 33l-16 31 3 2z"/><path fill="#5c7e84" stroke="#5c7e84" d="M845 33l-1-21-26 9z"/><path fill="#57b78b" stroke="#57b78b" d="M847-2l-29 23 26-9z"/><path fill="#5c7e84" stroke="#5c7e84" d="M847-2h-97l68 23z"/><path fill="#57a288" stroke="#57a288" d="M845 33l-27-12 6 42z"/><path fill="#598584" stroke="#598584" d="M769 95l-46-23-93-1z"/><path fill="#979e9f" stroke="#979e9f" d="M824 63l-6-42-6 43z"/><path fill="#889297" stroke="#889297" d="M836 82l-12-19-12 1z"/><path fill="#579085" stroke="#579085" d="M836 82l-24-18 3 29z"/><path fill="#989f9f" stroke="#989f9f" d="M836 82l-7-18-5-1z"/><path fill="#9da2a2" stroke="#9da2a2" d="M836 82l-4-16-3-2z"/><path fill="#568c84" stroke="#568c84" d="M818 21l-34 23 28 20z"/><path fill="#6e7d8a" stroke="#6e7d8a" d="M815 93l-3-29-43 31z"/><path fill="#598985" stroke="#598985" d="M818 21L750-2l34 46z"/><path fill="#58d390" stroke="#58d390" d="M812 64l-28-20-3 7z"/><path fill="#76838e" stroke="#76838e" d="M812 64l-31-13-12 44z"/><path fill="#566a7e" stroke="#566a7e" d="M750-2l-98 6 76 3z"/><path fill="#57aa89" stroke="#57aa89" d="M781 51L728 7l-13 19z"/><path fill="#6c7b89" stroke="#6c7b89" d="M781 51l-58 21 46 23z"/><path fill="#879197" stroke="#879197" d="M784 44L728 7l53 44z"/><path fill="#57a789" stroke="#57a789" d="M784 44L750-2l-22 9z"/><path fill="#579a86" stroke="#579a86" d="M781 51l-66-25 8 46z"/><path fill="#718b8e" stroke="#718b8e" d="M299 99L187 89 78 99z"/><path fill="#77848f" stroke="#77848f" d="M728 7l-76-3 17 10z"/><path fill="#879197" stroke="#879197" d="M728 7l-59 7 46 12z"/><path fill="#72808c" stroke="#72808c" d="M723 72l-8-46-46-12z"/><path fill="#7b8891" stroke="#7b8891" d="M723 72l-54-58-39 57z"/><path fill="#949b9d" stroke="#949b9d" d="M669 14L652 4l-20 27z"/><path fill="#5b8585" stroke="#5b8585" d="M669 14l-37 17-2 40z"/><path fill="#567a81" stroke="#567a81" d="M652 4l-28-4 8 31z"/><path fill="#7d8992" stroke="#7d8992" d="M624 0L515 3l44 22z"/><path fill="#788590" stroke="#788590" d="M632 31l-65 8 63 32z"/><path fill="#689c8d" stroke="#689c8d" d="M632 31l-8-31-57 39z"/><path fill="#5ca38a" stroke="#5ca38a" d="M630 71l-63-32-4 60z"/><path fill="#7b8791" stroke="#7b8791" d="M624 0l-65 25 8 14z"/><path fill="#7b9192" stroke="#7b9192" d="M563 99l-13-39-2 39z"/><path fill="#57b38b" stroke="#57b38b" d="M567 39l-17 21 13 39z"/><path fill="#838d95" stroke="#838d95" d="M567 39l-8-14-9 35z"/><path fill="#7a9793" stroke="#7a9793" d="M548 99l-64-24-42 24z"/><path fill="#7a8791" stroke="#7a8791" d="M559 25L515 3l-5 21z"/><path fill="#62a08b" stroke="#62a08b" d="M559 25l-49 10 40 25z"/><path fill="#627485" stroke="#627485" d="M559 25l-49-1v11z"/><path fill="#648488" stroke="#648488" d="M550 60l-41 3 39 36z"/><path fill="#8e979a" stroke="#8e979a" d="M550 60l-40-25-1 28z"/><path fill="#77be98" stroke="#77be98" d="M548 99l-39-36-25 12z"/><path fill="#58c88e" stroke="#58c88e" d="M515 3l-29-3 24 24z"/><path fill="#6dc796" stroke="#6dc796" d="M510 35l-26 40 25-12z"/><path fill="#58d490" stroke="#58d490" d="M510 24L486 0l24 35z"/><path fill="#919e9c" stroke="#919e9c" d="M510 35L486 0l-46 19z"/><path fill="#959c9e" stroke="#959c9e" d="M510 35l-70-16 44 56z"/><path fill="#9bcfa8" stroke="#9bcfa8" d="M484 75l-44-56-8 47z"/><path fill="#566a7e" stroke="#566a7e" d="M486 0l-62 4 16 15z"/><path fill="#9bdbaa" stroke="#9bdbaa" d="M484 75l-52-9 10 33z"/><path fill="#6e828b" stroke="#6e828b" d="M424 4l-138 8 49 21z"/><path fill="#a2edaf" stroke="#a2edaf" d="M440 19l-34 8 26 39z"/><path fill="#949b9d" stroke="#949b9d" d="M442 99l-10-33-28 32z"/><path fill="#a2f4b0" stroke="#a2f4b0" d="M440 19L424 4l-18 23z"/><path fill="#828d95" stroke="#828d95" d="M432 66l-38 15 10 17z"/><path fill="#8ba39b" stroke="#8ba39b" d="M432 66l-26-39-18 22z"/><path fill="#7f8a93" stroke="#7f8a93" d="M432 66l-44-17 6 32z"/><path fill="#5c6f82" stroke="#5c6f82" d="M424 4l-89 29 71-6z"/><path fill="#607584" stroke="#607584" d="M286 12l-184 1 54 16z"/><path fill="#78858f" stroke="#78858f" d="M404 98l-44-25-61 26z"/><path fill="#758c8f" stroke="#758c8f" d="M406 27l-71 6 53 16z"/><path fill="#9fefaf" stroke="#9fefaf" d="M404 98l-10-17-34-8z"/><path fill="#85a499" stroke="#85a499" d="M394 81l-6-32-28 24z"/><path fill="#596c80" stroke="#596c80" d="M388 49l-53-16 22 29z"/><path fill="#789191" stroke="#789191" d="M388 49l-31 13 3 11z"/><path fill="#566a7e" stroke="#566a7e" d="M357 62l-22-29 6 35z"/><path fill="#576b7f" stroke="#576b7f" d="M360 73l-3-11-16 6z"/><path fill="#7fd39e" stroke="#7fd39e" d="M360 73l-19-5-42 31z"/><path fill="#566a7e" stroke="#566a7e" d="M341 68l-6-35-51 50z"/><path fill="#667786" stroke="#667786" d="M341 68l-57 15 15 16z"/><path fill="#566a7e" stroke="#566a7e" d="M335 33l-49-21-19 47zM335 33l-68 26 17 24z"/><path fill="#9dffb3" stroke="#9dffb3" d="M284 83l-17-24 2 13z"/><path fill="#9af8ae" stroke="#9af8ae" d="M299 99l-15-16-26-4z"/><path fill="#648488" stroke="#648488" d="M299 99l-41-20-71 10z"/><path fill="#667787" stroke="#667787" d="M286 12L175 50l58 16z"/><path fill="#586c80" stroke="#586c80" d="M286 12L156 29l19 21z"/><path fill="#566a7e" stroke="#566a7e" d="M286 12l-53 54 34-7z"/><path fill="#739390" stroke="#739390" d="M284 83l-15-11-11 7z"/><path fill="#639189" stroke="#639189" d="M258 79l-17-11-54 21z"/><path fill="#6fb493" stroke="#6fb493" d="M267 59l-34 7 8 2z"/><path fill="#566a7e" stroke="#566a7e" d="M269 72l-2-13-9 20zM267 59l-26 9 17 11zM241 68l-8-2-46 23z"/><path fill="#697988" stroke="#697988" d="M233 66l-50 15 4 8z"/><path fill="#687f89" stroke="#687f89" d="M233 66l-58-16 8 31z"/><path fill="#648688" stroke="#648688" d="M183 81l-8-31-21 20z"/><path fill="#576b7f" stroke="#576b7f" d="M187 89l-46-13-63 23z"/><path fill="#8bdaa4" stroke="#8bdaa4" d="M187 89l-4-8-29-11z"/><path fill="#82c29d" stroke="#82c29d" d="M187 89l-33-19-13 6z"/><path fill="#87d8a2" stroke="#87d8a2" d="M175 50l-19-21-2 41z"/><path fill="#95fead" stroke="#95fead" d="M156 29l-21 37 19 4z"/><path fill="#68888a" stroke="#68888a" d="M156 29l-42 8 21 29z"/><path fill="#566a7e" stroke="#566a7e" d="M156 29l-54-16 12 24z"/><path fill="#82dda1" stroke="#82dda1" d="M154 70l-19-4 6 10z"/><path fill="#6c978e" stroke="#6c978e" d="M141 76l-6-10-57 33z"/><path fill="#70a491" stroke="#70a491" d="M135 66l-21-29-36 62z"/><path fill="#566a7e" stroke="#566a7e" d="M78 99l-7-52-2 47zM114 37l-12-24-14 8zM114 37L88 21 71 47zM114 37L71 47l7 52zM78 99l-9-5-68 5z"/><path fill="#66938b" stroke="#66938b" d="M102 13L44 4l44 17z"/><path fill="#6c928d" stroke="#6c928d" d="M88 21L44 4l24 24z"/><path fill="#566a7e" stroke="#566a7e" d="M88 21l-20 7 3 19zM71 47L24 80l45 14z"/><path fill="#77b497" stroke="#77b497" d="M71 47l-3-19-6 12z"/><path fill="#5b7e84" stroke="#5b7e84" d="M69 94L24 80 1 99z"/><path fill="#566a7e" stroke="#566a7e" d="M71 47l-9-7-38 40z"/><path fill="#94ffae" stroke="#94ffae" d="M68 28L44 4l18 36z"/><path fill="#68918b" stroke="#68918b" d="M62 40L24 23l-8 15z"/><path fill="#566a7e" stroke="#566a7e" d="M62 40L12 51l12 29zM62 40l-46-2-4 13z"/><path fill="#79b798" stroke="#79b798" d="M62 40L44 4 24 23z"/><path fill="#73a893" stroke="#73a893" d="M44 4L8 10l16 13z"/><path fill="#566a7e" stroke="#566a7e" d="M44 4L-3-2 8 10z"/><path fill="#93ffad" stroke="#93ffad" d="M24 23L8 10l8 28z"/><path fill="#566a7e" stroke="#566a7e" d="M24 80L12 51l-28 30zM24 80l-40 1L1 99z"/><path fill="#6c948d" stroke="#6c948d" d="M12 51l-28 4v26z"/><path fill="#8ceaa7" stroke="#8ceaa7" d="M16 38L8 10l-24 19z"/><path fill="#658588" stroke="#658588" d="M16 38l-32 11 28 2z"/><path fill="#566a7e" stroke="#566a7e" d="M16 38l-32-9v20zM8 10l-24 3v16zM12 51l-28 2v2z"/><path fill="#678c8a" stroke="#678c8a" d="M12 51l-28-2v4z"/><path fill="#566a7e" stroke="#566a7e" d="M8 10L-3-2l-13 9zM8 10l-24-3v6z"/><path fill="#648788" stroke="#648788" d="M1 99l-17-18v18z"/><path fill="#84dba1" stroke="#84dba1" d="M-3-2l-13 3v6z"/><path fill="#5b7181" stroke="#5b7181" d="M-3-2h-13v3z"/>
    </g>
    <g id="icon-time">
      <path d="M367,295.5H227.5V142h45v108.5H367V295.5z M256,95c-88.992,0-161,72.022-161,161c0,88.992,72.023,161,161,161c88.992,0,161-72.023,161-161C417,167.007,344.977,95,256,95 M256,50c113.771,0,206,92.229,206,206s-92.229,206-206,206S50,369.771,50,256S142.229,50,256,50z"/>
    </g>
    <g id="icon-chevron">
      <polygon points="142.332,104.886 197.48,50 402.5,256 197.48,462 142.332,407.113 292.727,256 "/>
    </g>
    <g id="icon-video">
      <title id="title-video">Video</title>
      <desc id="desc-video">Watch the video of this talk</desc>
      <path d="M458.388,180.186c-6.477-55.046-28.296-62.633-71.718-65.586c-61.736-4.2-199.561-4.203-261.34,0c-43.421,2.954-65.241,10.541-71.717,65.586c-4.809,40.867-4.825,110.619,0,151.627c6.477,55.046,28.296,62.633,71.717,65.588c61.779,4.202,199.604,4.199,261.34,0c43.422-2.955,65.241-10.542,71.718-65.588C463.196,290.946,463.212,221.195,458.388,180.186zM214.974,313.524V198.602l110.208,57.462L214.974,313.524z"/>
    </g>
  </defs>
</svg>
